# xmcd
#
# Track frame offsets:
#	150
#	12971
#	27512
#	40900
#	56685
#	70407
#	82849
#	96687
#	109695
#	125031
#	137033
#	150731
#	160511
#	175577
#	189567
#	201832
#	212608
#	228191
#	240682
#	253851
#
# Disc length: 3573 seconds
#
# Revision: 0
# Processed by: cddbd v1.5.2PL0 Copyright (c) Steve Scherf et al.
# Submitted via: EasyCDDAExtractor 16.0.6.1
#
DISCID=140df314
DTITLE=Νικολαΐδης Απόστολος - Τραγούδια 45 στροφές-Νικολαΐδης Απόστολος 1
DYEAR=1997
DGENRE=Λαϊκή
TTITLE0=Νικολαΐδης Απόστολος-Καλδάρας Απόστολος - Δεν σε θέλω για γυναίκα [196
TTITLE0=6, Απ. Καλδάρα]
TTITLE1=Νικολαΐδης Απόστολος-Λύδια Γιώτα-Τσιτσάνης Β. - Ρώτα πρώτα την καρδιά 
TTITLE1=μου [1964, Βασ. Τσιτσάνη]
TTITLE2=Νικολαΐδης Απόστολος-Γκίκα Βούλα - Η καφετζού [1963, Γιάννη Παπαϊωάννο
TTITLE2=υ]
TTITLE3=Νικολαΐδης Απόστολος - Σαν πεθάνω στο καράβι [1970, διασκ. Μπάμπη Μπακ
TTITLE3=άλη]
TTITLE4=Νικολαΐδης Απόστολος-Χρυσάφη Άννα - Στην καρδιά μου άλλη δεν χωράει [1
TTITLE4=965, Βασ. Τσιτσάνη]
TTITLE5=Νικολαΐδης Απόστολος-Χρυσάφη Άννα - Μάγια, μάγια μού 'κανες [1965, Ν. 
TTITLE5=Δαλέζιου]
TTITLE6=Νικολαΐδης Απόστολος - Είσαι για μένανε το παν [1966, Στρ. Ατταλίδη-Τζ
TTITLE6=Σταυρίδου]
TTITLE7=Νικολαΐδης Απόστολος - Σταλαματιά-σταλαματιά [1966, Οδ. Ζαχαριάδη-Μ. Α
TTITLE7=μπελιώτη]
TTITLE8=Νικολαΐδης Απόστολος - Τα δικά σου τα χάδια [1965, Π. Πετσά]
TTITLE9=Νικολαΐδης Απόστολος - Κάτω στα Λεμονάδικα [1970, Βαγγ. Παπάζογλου]
TTITLE10=Νικολαΐδης Απόστολος - Από πότε άλλαξες γλυκειά μου [1966, Θ. Σοφού]
TTITLE11=Νικολαΐδης Απόστολος - Μόνο εσύ μ' έχεις νοιώσει [1964, Γιάννη Καραμπ
TTITLE11=εσίνη]
TTITLE12=Νικολαΐδης Απόστολος-Γκίκα Βούλα - Κράτα το χέρι μου σφιχτά [1964, Γε
TTITLE12=ρ. Κλουβάτου]
TTITLE13=Νικολαΐδης Απόστολος - Να το προσέχεις το παιδί [1965, Βασ. Τσιτσάνη]
TTITLE14=Νικολαΐδης Απόστολος-Κολλητήρη Σ.-Χρηστάκης - Το έμαθα-το έμαθα [1963
TTITLE14=, Ν. Δαλέζιου]
TTITLE15=Νικολαΐδης Απόστολος-Χιώτης Μανώλης - Εσένα έχω κι αυτό με φτάνει [19
TTITLE15=64, Μ. Χιώτη-Κ. Μάνεση]
TTITLE16=Νικολαΐδης Απόστολος - Περιπλανώμενο κορμί [1966, Γιάννη Καραμπεσίνη]
TTITLE17=Νικολαΐδης Απόστολος - Μαύρες υποψίες [1964, Γιάννη Καραμπεσίνη]
TTITLE18=Νικολαΐδης Απόστολος - Τι είν' αυτό που σού συμβαίνει [1966, Θ. Σοφού
TTITLE18=]
TTITLE19=Νικολαΐδης Απόστολος - Μάννα μου με σκοτώσανε [1970, Μάρκου Βαμβακάρη
TTITLE19=]
EXTD=
EXTT0=
EXTT1=
EXTT2=
EXTT3=
EXTT4=
EXTT5=
EXTT6=
EXTT7=
EXTT8=
EXTT9=
EXTT10=
EXTT11=
EXTT12=
EXTT13=
EXTT14=
EXTT15=
EXTT16=
EXTT17=
EXTT18=
EXTT19=
PLAYORDER=
